<?xml version="1.0" encoding="UTF-8"?>
<svg xmlns="http://www.w3.org/2000/svg" xmlns:xlink="http://www.w3.org/1999/xlink" width="256px" height="329px" viewBox="0 0 256 329" version="1.1">
<g id="surface1">
<path style=" stroke:none;fill-rule:nonzero;fill:rgb(14.509804%,45.882353%,98.823529%);fill-opacity:1;" d="M 179.480469 8.675781 C 184.335938 8.675781 189.050781 10.203125 192.980469 12.996094 L 194.625 14.261719 L 246.910156 58.886719 C 252.863281 63.964844 253.582031 72.910156 248.5 78.859375 C 243.417969 84.808594 234.46875 85.503906 228.519531 80.429688 L 177.644531 37.019531 L 32.464844 37.019531 L 32.464844 291.980469 L 223.535156 291.980469 L 223.535156 179.902344 L 182.855469 179.902344 C 175.03125 179.902344 168.679688 173.554688 168.679688 165.730469 C 168.679688 157.910156 175.03125 151.558594 182.855469 151.558594 L 228.570312 151.558594 C 241.449219 151.558594 251.894531 162 251.894531 174.871094 L 251.894531 297.015625 C 251.894531 309.886719 241.449219 320.324219 228.570312 320.324219 L 27.429688 320.324219 C 14.550781 320.324219 4.105469 309.886719 4.105469 297.015625 L 4.105469 31.984375 C 4.105469 19.117188 14.550781 8.675781 27.429688 8.675781 Z M 168.355469 121.199219 C 132.730469 124.605469 110.824219 147.519531 100.75 164.480469 C 110.820312 181.449219 132.714844 204.394531 168.355469 207.800781 L 165.394531 238.71875 C 105.632812 233.003906 74.71875 187.402344 66.394531 164.535156 L 66.375 164.535156 L 66.375 164.464844 L 66.394531 164.445312 C 74.722656 141.574219 105.640625 95.996094 165.394531 90.28125 Z M 168.355469 121.199219 "/>
</g>
</svg>
